:SAMPLES-PER-SECOND 30
:FULLY-SPECIFIED
:DEGREES
152
root  4.883533388 34.69222362 2.315022251 -166.8759766 -81.41239929 166.9689941
lowerback  13.62160015 4.47247982 -5.196750164
upperback  5.533400059 4.901800156 -0.9939290285
thorax  -2.125989914 2.258949995 1.123569965
lowerneck  0.9163100123 9.502980232 0.9759169817
upperneck  2.51364994 12.71500015 -3.066620111
head  0.8977609873 6.333499908 -1.005810022
lclavicle  0 -9.442270133e-015 7.951389973e-016
lhumerus  -3.729480028 -14.86919975 89.625
lradius  2.049782101e-031 -2.875280399e-031 125.4850006
lwrist  -1.412450015e-030 -1.765562519e-031 13.2038002
lhand  -1.496451383e-031 -27.76390076 20.11240005
lfingers  90 7.125020027 -90
lthumb  89.89689403 5.08795885 91.16245106
rclavicle  0 -9.442270133e-015 7.951389973e-016
rhumerus  6.334819794 24.26499939 -83.24140167
rradius  -1.825262885e-031 3.022790009e-031 121.125
rwrist  7.062250077e-031 -3.531125038e-031 -8.410369873
rhand  -7.920061211e-032 -33.2840004 9.303460121
rfingers  -90 -7.125020027 -90
rthumb  -92.93752616 -24.25625642 -97.11982154
rfemur  -18.08180046 -1.515920043 3.89557004
rtibia  -0 0 78.98179626
rfoot  -0 -28.03409958 -16.73950005
rtoes  5.373923086 19.29304026 -105.8922705
lfemur  -41.89009857 -5.360879898 -1.261719942
ltibia  -0 0 64.65699768
lfoot  4.660780227e-032 -18.73189926 2.249010086
ltoes  -4.250644065 -19.5611806 -102.515957
153
root  4.967977869 34.88266712 2.31966672 -165.8079834 -81.64990234 166.8460083
lowerback  13.63720036 4.481110096 -5.014019966
upperback  5.64564991 4.940499783 -0.842426002
thorax  -2.017719984 2.274300098 1.177360058
lowerneck  1.156900048 9.299160004 1.108989954
upperneck  2.009730101 12.4364996 -3.095390081
head  0.7056109905 6.204249859 -1.065299988
lclavicle  0 -9.442270133e-015 7.951389973e-016
lhumerus  -3.958830118 -15.14229965 89.50559998
lradius  2.035756801e-031 -2.885227597e-031 125.2060013
lwrist  -1.412450015e-030 -0 12.83380032
lhand  -1.496451383e-031 -27.76390076 20.11240005
lfingers  90 7.125020027 -90
lthumb  89.89689403 5.08795885 91.16245106
rclavicle  0 -9.442270133e-015 7.951389973e-016
rhumerus  5.776770115 23.96120071 -83.49340057
rradius  -1.783252634e-031 3.047762143e-031 120.3320007
rwrist  1.412450015e-030 -3.531125038e-031 -8.84665966
rhand  -7.920061211e-032 -33.2840004 9.303460121
rfingers  -90 -7.125020027 -90
rthumb  -92.93752616 -24.25625642 -97.11982154
rfemur  -19.18099976 -1.419720054 3.986479998
rtibia  -0 0 78.77829742
rfoot  -0 -26.95759964 -16.42919922
rtoes  5.373923086 19.29304026 -105.8922705
lfemur  -42.29330063 -6.478240013 -0.8302090168
ltibia  -0 0 63.15890121
lfoot  6.966781327e-032 -18.1310997 2.516340017
ltoes  -4.250644065 -19.5611806 -102.515957
154
root  5.042488744 35.08577722 2.319222172 -163.4899902 -81.66169739 164.9970093
lowerback  13.93280029 4.571619987 -5.062270164
upperback  5.835120201 5.02451992 -0.7866629958
thorax  -1.99003005 2.304510117 1.235620022
lowerneck  1.401250005 9.166859627 1.264529943
upperneck  1.695330024 12.2560997 -3.043580055
head  0.5702170134 6.121150017 -1.097239971
lclavicle  0 -9.442270133e-015 7.951389973e-016
lhumerus  -4.132349968 -15.25300026 89.32929993
lradius  2.027288169e-031 -2.89118431e-031 125.038002
lwrist  -7.062250077e-031 -0 12.11310005
lhand  -1.496451383e-031 -27.76390076 20.11240005
lfingers  90 7.125020027 -90
lthumb  89.89689403 5.08795885 91.16245106
rclavicle  0 -9.442270133e-015 7.951389973e-016
rhumerus  5.342919827 24.0177002 -83.52700043
rradius  -1.740310863e-031 3.072484685e-031 119.5279999
rwrist  1.412450015e-030 -1.765562519e-031 -8.996930122
rhand  -7.920061211e-032 -33.2840004 9.303460121
rfingers  -90 -7.125020027 -90
rthumb  -92.93752616 -24.25625642 -97.11982154
rfemur  -19.6602993 -1.157850027 3.630170107
rtibia  -0 0 78.34529877
rfoot  -0 -25.95709991 -15.72309971
rtoes  5.373923086 19.29304026 -105.8922705
lfemur  -42.25460052 -7.502280235 -0.7624340057
ltibia  -0 0 61.73300171
lfoot  4.62177984e-032 -17.24939919 2.866189957
ltoes  -4.250644065 -19.5611806 -102.515957
155
root  5.093577903 35.32333374 2.304222265 -160.53302 -81.40499878 161.9249878
lowerback  14.55889988 4.864610195 -5.315869808
upperback  6.110660076 5.305560112 -0.8675590158
thorax  -2.062829971 2.423979998 1.210559964
lowerneck  1.722679973 8.961859703 1.836330056
upperneck  1.51233995 11.98890018 -3.034320116
head  0.4893949926 5.99492979 -1.207119942
lclavicle  0 -9.442270133e-015 7.951389973e-016
lhumerus  -4.27023983 -15.68169975 89.10600281
lradius  2.021784231e-031 -2.895035848e-031 124.9290009
lwrist  -7.062250077e-031 1.765562519e-031 11.74810028
lhand  -1.496451383e-031 -27.76390076 20.11240005
lfingers  90 7.125020027 -90
lthumb  89.89689403 5.08795885 91.16245106
rclavicle  0 -9.442270133e-015 7.951389973e-016
rhumerus  4.69367981 23.85140038 -83.77469635
rradius  -1.703346479e-031 3.093130261e-031 118.8410034
rwrist  7.062250077e-031 1.765562519e-031 -9.096090317
rhand  -7.920061211e-032 -33.2840004 9.303460121
rfingers  -90 -7.125020027 -90
rthumb  -92.93752616 -24.25625642 -97.11982154
rfemur  -19.41469955 -0.7304130197 2.970809937
rtibia  -0 0 77.67630005
rfoot  -0 -24.74130058 -15.05039978
rtoes  5.373923086 19.29304026 -105.8922705
lfemur  -41.45809937 -8.360440254 -1.141129971
ltibia  -0 0 60.33430099
lfoot  4.601433358e-032 -16.41379929 3.326539993
ltoes  -4.250644065 -19.5611806 -102.515957
156
root  5.123222156 35.57711023 2.255822167 -159.8660278 -81.13240051 161.1209717
lowerback  14.99960041 5.283689976 -5.302229881
upperback  6.349440098 5.801400185 -0.9761580229
thorax  -2.061229944 2.655149937 0.9792119861
lowerneck  2.212229967 8.610429764 2.769989967
upperneck  1.255579948 11.5394001 -3.055730104
head  0.3744550049 5.779200077 -1.396420002
lclavicle  0 -9.442270133e-015 7.951389973e-016
lhumerus  -4.232279778 -16.70409966 88.83480072
lradius  2.01278045e-031 -2.901302965e-031 124.7509995
lwrist  -1.412450015e-030 -0 11.45460033
lhand  -1.496451383e-031 -27.76390076 20.11240005
lfingers  90 7.125020027 -90
lthumb  89.89689403 5.08795885 91.16245106
rclavicle  0 -9.442270133e-015 7.951389973e-016
rhumerus  3.898699999 23.1060009 -84.4957962
rradius  -1.683498826e-031 3.103977407e-031 118.473999
rwrist  1.412450015e-030 1.765562519e-031 -9.205719948
rhand  -7.920061211e-032 -33.2840004 9.303460121
rfingers  -90 -7.125020027 -90
rthumb  -92.93752616 -24.25625642 -97.11982154
rfemur  -19.06710052 -0.1688009948 2.775059938
rtibia  -0 0 76.86270142
rfoot  -0 -23.35250092 -14.64430046
rtoes  5.373923086 19.29304026 -105.8922705
lfemur  -40.45000076 -8.897339821 -1.245830059
ltibia  -0 0 58.89220047
lfoot  4.586765647e-032 -15.7798996 3.55817008
ltoes  -4.250644065 -19.5611806 -102.515957
157
root  5.135955585 35.82733335 2.192526727 -160.4749756 -80.93319702 161.7550049
lowerback  15.00710011 5.527979851 -5.278540134
upperback  6.603139877 6.119800091 -0.8525969982
thorax  -1.826120019 2.797280073 1.049559951
lowerneck  2.506560087 8.441710472 3.144730091
upperneck  1.20878005 11.3270998 -3.044850111
head  0.3259249926 5.676159859 -1.470549941
lclavicle  0 -9.442270133e-015 7.951389973e-016
lhumerus  -4.067629814 -17.22669983 88.8792038
lradius  2.007612393e-031 -2.904881498e-031 124.6490021
lwrist  -7.062250077e-031 -0 10.67129993
lhand  -1.496451383e-031 -27.76390076 20.11240005
lfingers  90 7.125020027 -90
lthumb  89.89689403 5.08795885 91.16245106
rclavicle  0 -9.442270133e-015 7.951389973e-016
rhumerus  3.286370039 22.48559952 -85.78469849
rradius  -1.690212561e-031 3.100326682e-031 118.5979996
rwrist  7.062250077e-031 -0 -9.314390182
rhand  -7.920061211e-032 -33.2840004 9.303460121
rfingers  -90 -7.125020027 -90
rthumb  -92.93752616 -24.25625642 -97.11982154
rfemur  -18.80450058 0.4754169881 2.777070045
rtibia  -0 0 75.97489929
rfoot  -0 -22.21319962 -13.49499989
rtoes  5.373923086 19.29304026 -105.8922705
lfemur  -39.50759888 -9.168270111 -1.109629989
ltibia  -0 0 57.37609863
lfoot  4.575533907e-032 -15.27429962 3.60213995
ltoes  -4.250644065 -19.5611806 -102.515957
